<?xml version="1.0" standalone="no"?>
<!DOCTYPE svg PUBLIC "-//W3C//DTD SVG 20010904//EN"
 "http://www.w3.org/TR/2001/REC-SVG-20010904/DTD/svg10.dtd">
<svg version="1.0" xmlns="http://www.w3.org/2000/svg"
 width="267.000000pt" height="261.000000pt" viewBox="0 0 267.000000 261.000000"
 preserveAspectRatio="xMidYMid meet">
<metadata>
Created by potrace 1.12, written by Peter Selinger 2001-2015
</metadata>
<g transform="translate(0.000000,261.000000) scale(0.100000,-0.100000)"
fill="#000000" stroke="none">
<path d="M560 2534 c0 -8 7 -16 89 -101 33 -35 64 -63 68 -63 4 -1 19 -14 33
-30 13 -17 28 -30 34 -30 5 0 24 -11 42 -25 18 -14 43 -29 56 -35 13 -5 30
-14 38 -20 30 -20 223 -103 270 -116 14 -4 27 -10 30 -15 5 -7 83 -28 313 -85
32 -8 63 -11 69 -8 6 4 8 2 4 -4 -4 -6 20 -19 61 -32 38 -13 72 -26 78 -31 14
-14 35 -10 35 6 0 8 -4 15 -9 15 -5 0 -14 13 -19 30 -12 32 -24 49 -59 82 -13
12 -23 27 -23 33 0 6 -12 18 -28 27 -15 9 -39 27 -53 40 -14 13 -38 30 -54 38
-15 8 -41 27 -56 43 -15 15 -31 27 -35 27 -11 0 -84 79 -84 91 0 6 -7 8 -16 5
-8 -3 -13 -2 -10 3 10 16 -6 71 -20 71 -10 0 -14 -13 -14 -45 0 -25 4 -45 9
-45 5 0 11 -13 14 -29 11 -53 125 -152 247 -214 13 -6 34 -22 47 -34 12 -13
30 -23 39 -23 10 0 15 -3 11 -6 -6 -6 -148 36 -157 47 -3 3 -39 14 -80 24
-127 30 -282 74 -340 95 -59 22 -63 24 -161 69 -37 17 -71 31 -77 31 -5 0 -12
6 -15 13 -2 7 -31 26 -63 42 -32 17 -63 33 -69 37 -23 18 -90 75 -116 101 -16
16 -29 25 -29 21z"/>
<path d="M608 2241 c12 -12 22 -26 22 -30 0 -5 29 -38 64 -74 l64 -66 -29 -6
c-25 -6 -29 -11 -29 -41 0 -23 7 -40 21 -52 12 -9 29 -25 38 -34 8 -10 19 -18
23 -18 5 0 27 -19 49 -41 36 -36 39 -43 25 -51 -31 -18 -19 -64 29 -113 25
-25 50 -45 55 -45 23 0 50 -41 50 -77 0 -29 7 -43 37 -69 36 -32 177 -93 189
-82 3 3 -8 9 -23 13 -15 3 -42 17 -60 31 -17 13 -35 24 -39 24 -4 0 -16 10
-28 23 -12 13 -28 21 -36 19 -11 -4 -10 0 3 12 9 10 17 24 17 32 0 8 7 17 15
20 8 4 15 11 15 16 0 13 -41 47 -57 48 -7 0 -13 5 -13 10 0 6 -5 10 -11 10
-16 0 -79 66 -79 83 0 7 11 20 24 27 27 14 38 33 30 53 -5 14 -69 57 -84 57
-5 0 -10 5 -10 10 0 6 -4 10 -10 10 -24 0 -89 56 -90 78 0 12 4 22 9 22 5 0
22 5 37 10 l27 11 -29 27 c-16 16 -49 40 -74 54 -25 15 -63 43 -85 63 -46 42
-97 73 -57 36z"/>
<path d="M1940 1903 c-34 -14 -60 -58 -60 -102 0 -41 22 -131 32 -131 14 0 9
-61 -8 -77 -8 -9 -12 -23 -9 -31 3 -9 3 -13 -1 -9 -4 4 -17 1 -28 -6 -24 -15
-112 -45 -231 -77 -83 -22 -105 -34 -105 -55 0 -7 -10 -15 -23 -19 -23 -5 -47
-42 -47 -71 0 -8 -4 -15 -10 -15 -5 0 -10 -11 -10 -25 0 -14 5 -25 10 -25 6 0
10 -9 10 -20 0 -40 43 -110 68 -110 7 0 11 -4 7 -9 -7 -12 52 -54 65 -46 5 3
10 1 10 -5 0 -5 26 -22 58 -36 31 -14 67 -30 79 -36 11 -6 27 -7 34 -3 8 5 10
4 5 -3 -4 -7 -1 -12 6 -12 7 0 24 -3 38 -6 21 -6 18 -1 -15 24 -22 17 -44 32
-48 32 -5 0 -34 18 -66 40 -31 22 -60 40 -63 40 -11 0 -68 58 -68 69 0 6 -4
11 -9 11 -13 0 -31 57 -31 96 0 51 15 78 54 99 20 11 36 23 36 26 0 4 37 17
83 29 106 29 178 63 223 107 35 34 36 37 32 91 -3 31 -10 58 -16 60 -7 2 -12
10 -12 17 0 8 -7 21 -16 29 -18 18 -22 98 -5 104 6 2 11 9 11 17 0 7 10 20 23
28 23 17 22 19 -3 10z"/>
<path d="M390 500 c0 -33 -3 -40 -20 -40 -15 0 -20 -7 -20 -25 0 -18 5 -25 20
-25 18 0 20 -7 20 -75 0 -60 4 -79 19 -94 26 -26 84 -43 117 -35 32 8 75 34
57 34 -6 0 -13 8 -15 17 -2 12 -14 17 -43 17 l-40 1 -3 70 -3 71 41 -4 c39 -4
41 -3 38 19 -2 20 -10 25 -40 27 -37 3 -38 4 -38 43 l0 39 -45 0 -45 0 0 -40z"/>
<path d="M660 370 l0 -173 118 6 c165 8 198 19 251 82 21 25 32 88 22 123 -12
41 -67 96 -111 111 -19 7 -90 15 -157 18 l-123 6 0 -173z m241 88 c22 -6 41
-19 44 -30 4 -10 11 -18 16 -18 5 0 9 -18 9 -40 0 -22 -4 -40 -9 -40 -5 0 -12
-8 -16 -18 -7 -24 -66 -42 -134 -42 l-51 0 0 100 0 100 51 0 c29 0 69 -5 90
-12z"/>
<path d="M1150 330 l0 -130 40 0 40 0 0 130 0 130 -40 0 -40 0 0 -130z"/>
<path d="M1440 454 c-14 -3 -44 -9 -68 -16 -42 -11 -42 -11 -23 -29 17 -16 25
-17 75 -7 44 10 60 9 80 -2 15 -7 26 -16 26 -20 0 -3 -41 -11 -92 -16 -100
-12 -118 -24 -118 -78 1 -35 23 -71 38 -62 6 3 12 1 14 -6 6 -16 114 -16 130
0 16 16 39 15 36 0 -2 -8 11 -14 35 -16 l37 -3 0 105 0 104 -32 20 c-35 21
-96 32 -138 26z"/>
<path d="M1710 330 l0 -130 40 0 40 0 0 75 c0 41 4 75 9 75 5 0 12 9 16 19 4
13 19 22 45 26 34 6 40 11 40 31 0 29 -29 32 -74 9 -36 -19 -36 -19 -36 5 0
17 -7 20 -40 20 l-40 0 0 -130z"/>
<path d="M1930 450 c0 -5 4 -10 9 -10 5 0 15 -16 21 -35 6 -19 15 -35 20 -35
5 0 11 -13 15 -30 4 -16 11 -30 16 -30 5 0 14 -20 20 -45 6 -25 15 -45 20 -45
5 0 9 -9 9 -19 0 -23 -31 -35 -65 -27 -18 5 -27 1 -35 -14 -14 -27 -6 -38 35
-46 61 -11 101 7 151 69 6 7 17 31 24 52 7 22 19 46 27 53 7 7 13 20 13 28 0
8 4 14 9 14 5 0 15 17 22 37 6 21 18 44 26 51 24 25 15 42 -23 42 -40 0 -60
-16 -75 -60 -6 -16 -15 -30 -19 -30 -4 0 -11 -11 -14 -24 -8 -31 -33 -41 -41
-15 -4 10 -11 19 -16 19 -5 0 -9 6 -9 14 0 8 -6 21 -13 28 -7 7 -18 25 -24 41
-11 24 -18 27 -58 27 -25 0 -45 -4 -45 -10z"/>
</g>
</svg>
